<svg xmlns="http://www.w3.org/2000/svg" width="24" height="24"><g fill="none" fill-rule="evenodd"><rect width="23" height="23" x=".5" y=".5" fill="#FFF" stroke="#E6EAEB" rx="4"/><path d="M7.406 14.09c0 .916-.748 1.665-1.664 1.665a1.669 1.669 0 0 1-1.665-1.665c0-.916.749-1.664 1.665-1.664h1.664v1.664zm.839 0c0-.916.749-1.664 1.665-1.664s1.664.748 1.664 1.664v4.168c0 .916-.748 1.665-1.664 1.665a1.669 1.669 0 0 1-1.665-1.665V14.09z" fill="#E01E5A"/><path d="M9.91 7.406a1.669 1.669 0 0 1-1.665-1.664c0-.916.749-1.665 1.665-1.665s1.664.749 1.664 1.665v1.664H9.91zm0 .839c.916 0 1.664.749 1.664 1.665s-.748 1.664-1.664 1.664H5.742A1.669 1.669 0 0 1 4.077 9.91a1.67 1.67 0 0 1 1.665-1.665H9.91z" fill="#36C5F0"/><path d="M16.594 9.91c0-.916.748-1.665 1.664-1.665.916 0 1.665.749 1.665 1.665s-.749 1.664-1.665 1.664h-1.664V9.91zm-.839 0c0 .916-.749 1.664-1.665 1.664a1.669 1.669 0 0 1-1.664-1.664V5.742c0-.916.748-1.665 1.664-1.665a1.67 1.67 0 0 1 1.665 1.665V9.91z" fill="#2EB67D"/><path d="M14.09 16.594c.916 0 1.665.748 1.665 1.664a1.67 1.67 0 0 1-1.665 1.665 1.669 1.669 0 0 1-1.664-1.665v-1.664h1.664zm0-.839a1.669 1.669 0 0 1-1.664-1.665c0-.916.748-1.664 1.664-1.664h4.168c.916 0 1.665.748 1.665 1.664a1.67 1.67 0 0 1-1.665 1.665H14.09z" fill="#ECB22E"/></g></svg>